<?xml version="1.0" encoding="UTF-8"?>
<svg width="96px" height="28px" viewBox="0 0 96 28" version="1.1" xmlns="http://www.w3.org/2000/svg" xmlns:xlink="http://www.w3.org/1999/xlink">
    <title>切片</title>
    <defs>
        <linearGradient x1="0%" y1="0.346619406%" x2="50%" y2="99.6533806%" id="linearGradient-1">
            <stop stop-color="#849CF7" offset="0%"></stop>
            <stop stop-color="#4259EB" offset="100%"></stop>
        </linearGradient>
        <path d="M4.68292683,0 L4.68242149,5.91559182 C6.06012804,5.12128449 7.65971502,4.66666667 9.36585366,4.66666667 C14.4408752,4.66666667 18.5731234,8.68914406 18.7272505,13.7092908 L18.7317073,14 L14.0487805,14 C14.0487805,11.4226712 11.9521627,9.33333333 9.36585366,9.33333333 C6.85791759,9.33333333 4.81044424,11.2979632 4.68865792,13.7670863 L4.68292683,14 L4.68292683,18.6666667 L0,18.6666667 L0,0 L4.68292683,0 Z" id="path-2"></path>
        <path d="M32.7804878,0 L32.7804878,14 C32.7804878,19.1546577 28.5872523,23.3333333 23.4146341,23.3333333 C18.242016,23.3333333 14.0487805,19.1546577 14.0487805,14 C14.0487805,8.84534234 18.242016,4.66666667 23.4146341,4.66666667 C25.1206907,4.66666667 26.7202058,5.12124073 28.0978674,5.91547712 L28.097561,0 L32.7804878,0 Z M23.4146341,9.33333333 C20.8283251,9.33333333 18.7317073,11.4226712 18.7317073,14 C18.7317073,16.5773288 20.8283251,18.6666667 23.4146341,18.6666667 C26.0009432,18.6666667 28.097561,16.5773288 28.097561,14 C28.097561,11.4226712 26.0009432,9.33333333 23.4146341,9.33333333 Z" id="path-4"></path>
        <filter x="-88.1%" y="-62.1%" width="254.8%" height="224.3%" filterUnits="objectBoundingBox" id="filter-5">
            <feMorphology radius="1" operator="dilate" in="SourceAlpha" result="shadowSpreadOuter1"></feMorphology>
            <feOffset dx="-2" dy="0" in="shadowSpreadOuter1" result="shadowOffsetOuter1"></feOffset>
            <feGaussianBlur stdDeviation="3.5" in="shadowOffsetOuter1" result="shadowBlurOuter1"></feGaussianBlur>
            <feColorMatrix values="0 0 0 0 0   0 0 0 0 0.106666667   0 0 0 0 0.8  0 0 0 0.4 0" type="matrix" in="shadowBlurOuter1"></feColorMatrix>
        </filter>
        <linearGradient x1="17.776615%" y1="0%" x2="50%" y2="100%" id="linearGradient-6">
            <stop stop-color="#849CF7" offset="0%"></stop>
            <stop stop-color="#4259EB" offset="100%"></stop>
        </linearGradient>
        <path d="M0,0 L4.68292683,0 L4.68242149,5.91559182 C6.06012804,5.12128449 7.65971502,4.66666667 9.36585366,4.66666667 C14.5384718,4.66666667 18.7317073,8.84534234 18.7317073,14 C18.7317073,19.1546577 14.5384718,23.3333333 9.36585366,23.3333333 C4.19323551,23.3333333 0,19.1546577 0,14 L0,14 L0,0 Z M9.36585366,9.33333333 C6.77954459,9.33333333 4.68292683,11.4226712 4.68292683,14 L4.68292683,14 L4.68292683,14 L4.68774567,14.2136135 C4.79978344,16.691791 6.85138651,18.6666667 9.36585366,18.6666667 C11.9521627,18.6666667 14.0487805,16.5773288 14.0487805,14 C14.0487805,11.4226712 11.9521627,9.33333333 9.36585366,9.33333333 Z" id="path-7"></path>
        <path d="M23.4146341,4.66666667 C28.5872523,4.66666667 32.7804878,8.84534234 32.7804878,14 C32.7804878,19.1546577 28.5872523,23.3333333 23.4146341,23.3333333 C21.7084955,23.3333333 20.1089085,22.8787155 18.731202,22.0844082 L18.7317073,28 L14.0487805,28 L14.0487805,14 L14.052635,13.7296207 C14.196213,8.70000828 18.3327637,4.66666667 23.4146341,4.66666667 Z M23.4146341,9.33333333 C20.8283251,9.33333333 18.7317073,11.4226712 18.7317073,14 C18.7317073,16.5773288 20.8283251,18.6666667 23.4146341,18.6666667 C26.0009432,18.6666667 28.097561,16.5773288 28.097561,14 C28.097561,11.4226712 26.0009432,9.33333333 23.4146341,9.33333333 Z" id="path-9"></path>
        <filter x="-88.1%" y="-62.1%" width="254.8%" height="224.3%" filterUnits="objectBoundingBox" id="filter-10">
            <feMorphology radius="1" operator="dilate" in="SourceAlpha" result="shadowSpreadOuter1"></feMorphology>
            <feOffset dx="-2" dy="0" in="shadowSpreadOuter1" result="shadowOffsetOuter1"></feOffset>
            <feGaussianBlur stdDeviation="3.5" in="shadowOffsetOuter1" result="shadowBlurOuter1"></feGaussianBlur>
            <feColorMatrix values="0 0 0 0 0   0 0 0 0 0.106666667   0 0 0 0 0.8  0 0 0 0.4 0" type="matrix" in="shadowBlurOuter1"></feColorMatrix>
        </filter>
        <path d="M9.36585366,0 C14.5384718,0 18.7317073,4.17867567 18.7317073,9.33333333 C18.7317073,14.487991 14.5384718,18.6666667 9.36585366,18.6666667 C7.65971502,18.6666667 6.06012804,18.2120488 4.68242149,17.4177415 L4.68292683,23.3333333 L0,23.3333333 L0,9.33333333 L0.00385451621,9.06295404 C0.147432512,4.03334161 4.2839832,0 9.36585366,0 Z M9.36585366,4.66666667 C6.77954459,4.66666667 4.68292683,6.7560045 4.68292683,9.33333333 C4.68292683,11.9106622 6.77954459,14 9.36585366,14 C11.9521627,14 14.0487805,11.9106622 14.0487805,9.33333333 C14.0487805,6.7560045 11.9521627,4.66666667 9.36585366,4.66666667 Z" id="path-11"></path>
        <path d="M37.4634146,4.66666667 C34.9554786,4.66666667 32.9080052,6.63129655 32.7862189,9.1004196 L32.7804878,9.33333333 L32.7804878,14 L28.097561,14 L28.097561,9.33333333 C28.097561,6.7560045 26.0009432,4.66666667 23.4146341,4.66666667 C20.9066981,4.66666667 18.8592247,6.63129655 18.7374384,9.1004196 L18.7317073,9.33333333 L14.0487805,9.33333333 C14.0487805,4.17867567 18.242016,0 23.4146341,0 C26.2123275,0 28.7235161,1.22241324 30.4396952,3.16050056 C32.1546118,1.22237473 34.6657654,0 37.4634146,0 C42.5384362,0 46.6706843,4.0224774 46.8248115,9.04262411 L46.8292683,9.33333333 L46.8292683,14 L42.1463415,14 L42.1463415,9.33333333 C42.1463415,6.7560045 40.0497237,4.66666667 37.4634146,4.66666667 Z" id="path-13"></path>
        <filter x="-50.3%" y="-103.6%" width="188.5%" height="307.1%" filterUnits="objectBoundingBox" id="filter-14">
            <feMorphology radius="1" operator="dilate" in="SourceAlpha" result="shadowSpreadOuter1"></feMorphology>
            <feOffset dx="-2" dy="0" in="shadowSpreadOuter1" result="shadowOffsetOuter1"></feOffset>
            <feGaussianBlur stdDeviation="3.5" in="shadowOffsetOuter1" result="shadowBlurOuter1"></feGaussianBlur>
            <feColorMatrix values="0 0 0 0 0   0 0 0 0 0.106666667   0 0 0 0 0.8  0 0 0 0.4 0" type="matrix" in="shadowBlurOuter1"></feColorMatrix>
        </filter>
        <linearGradient x1="34.8200356%" y1="37.4594442%" x2="50%" y2="60.00367%" id="linearGradient-15">
            <stop stop-color="#849CF7" offset="0%"></stop>
            <stop stop-color="#4259EB" offset="100%"></stop>
        </linearGradient>
    </defs>
    <g id="页面-1" stroke="none" stroke-width="1" fill="none" fill-rule="evenodd">
        <g id="切图" transform="translate(-1544.000000, -40.000000)">
            <g id="cutting/logo" transform="translate(1544.000000, 40.000000)">
                <g id="编组-18">
                    <g id="编组-3">
                        <mask id="mask-3" fill="white">
                            <use xlink:href="#path-2"></use>
                        </mask>
                        <use id="形状结合" fill="url(#linearGradient-1)" fill-rule="nonzero" xlink:href="#path-2"></use>
                        <g id="形状结合" fill-rule="nonzero" mask="url(#mask-3)">
                            <use fill="black" fill-opacity="1" filter="url(#filter-5)" xlink:href="#path-4"></use>
                            <use fill="#4D63EC" xlink:href="#path-4"></use>
                        </g>
                    </g>
                    <path d="M32.7804878,0 L32.7804878,14 C32.7804878,19.1546577 28.5872523,23.3333333 23.4146341,23.3333333 C18.242016,23.3333333 14.0487805,19.1546577 14.0487805,14 C14.0487805,8.84534234 18.242016,4.66666667 23.4146341,4.66666667 C25.1206907,4.66666667 26.7202058,5.12124073 28.0978674,5.91547712 L28.097561,0 L32.7804878,0 Z M23.4146341,9.33333333 C20.8283251,9.33333333 18.7317073,11.4226712 18.7317073,14 C18.7317073,16.5773288 20.8283251,18.6666667 23.4146341,18.6666667 C26.0009432,18.6666667 28.097561,16.5773288 28.097561,14 C28.097561,11.4226712 26.0009432,9.33333333 23.4146341,9.33333333 Z" id="形状结合" fill="url(#linearGradient-6)" fill-rule="nonzero"></path>
                </g>
                <g id="编组-15" transform="translate(35.121951, 0.000000)">
                    <g id="编组">
                        <mask id="mask-8" fill="white">
                            <use xlink:href="#path-7"></use>
                        </mask>
                        <use id="形状结合" fill="url(#linearGradient-6)" fill-rule="nonzero" xlink:href="#path-7"></use>
                        <g id="形状结合" fill-rule="nonzero" mask="url(#mask-8)">
                            <use fill="black" fill-opacity="1" filter="url(#filter-10)" xlink:href="#path-9"></use>
                            <use fill="#4D63EC" xlink:href="#path-9"></use>
                        </g>
                    </g>
                    <g id="编组-2" transform="translate(14.048780, 4.666667)">
                        <mask id="mask-12" fill="white">
                            <use xlink:href="#path-11"></use>
                        </mask>
                        <use id="形状结合" fill="url(#linearGradient-6)" fill-rule="nonzero" xlink:href="#path-11"></use>
                        <g id="形状结合" fill-rule="nonzero" mask="url(#mask-12)">
                            <use fill="black" fill-opacity="1" filter="url(#filter-14)" xlink:href="#path-13"></use>
                            <use fill="#4D63EC" xlink:href="#path-13"></use>
                        </g>
                    </g>
                    <path d="M51.5121951,9.33333333 C49.0042591,9.33333333 46.9567857,11.2979632 46.8349994,13.7670863 L46.8292683,14 L46.8292683,18.6666667 L42.1463415,18.6666667 L42.1463415,14 C42.1463415,11.4226712 40.0497237,9.33333333 37.4634146,9.33333333 C34.9554786,9.33333333 32.9080052,11.2979632 32.7862189,13.7670863 L32.7804878,14 L28.097561,14 C28.097561,8.84534234 32.2907965,4.66666667 37.4634146,4.66666667 C40.2606207,4.66666667 42.7714219,5.88865417 44.487579,7.82615471 C46.2042634,5.88861737 48.7150311,4.66666667 51.5121951,4.66666667 C56.5872167,4.66666667 60.7194648,8.68914406 60.873592,13.7092908 L60.8780488,14 L60.8780488,18.6666667 L56.195122,18.6666667 L56.195122,14 C56.195122,11.4226712 54.0985042,9.33333333 51.5121951,9.33333333 Z M18.7317073,14 C18.7317073,16.5773288 20.8283251,18.6666667 23.4146341,18.6666667 C25.9225702,18.6666667 27.9700436,16.7020368 28.0918299,14.2329137 L28.097561,14 L32.7804878,14 C32.7804878,19.1546577 28.5872523,23.3333333 23.4146341,23.3333333 C18.3396126,23.3333333 14.2073644,19.3108559 14.0532373,14.2907092 L14.0487805,14 L18.7317073,14 Z" id="形状结合" fill="url(#linearGradient-15)" fill-rule="nonzero"></path>
                </g>
            </g>
        </g>
    </g>
</svg>