<?xml version="1.0" encoding="UTF-8"?>
<svg width="20px" height="20px" viewBox="0 0 20 20" version="1.1" xmlns="http://www.w3.org/2000/svg" xmlns:xlink="http://www.w3.org/1999/xlink">
    <title>ic_delete_line_normal</title>
    <g id="⌚️标准组件" stroke="none" stroke-width="1" fill="none" fill-rule="evenodd">
        <g id="门店设置" transform="translate(-835.000000, -1367.000000)">
            <g id="弹框选择授权门店" transform="translate(87.000000, 1089.000000)">
                <g id="内容" transform="translate(20.000000, 64.000000)">
                    <g id="右边" transform="translate(388.000000, 0.000000)">
                        <g id="ic_delete_line_normal" transform="translate(340.000000, 214.000000)">
                            <circle id="椭圆形" stroke="#A1B0C8" cx="10" cy="10" r="9.5"></circle>
                            <path d="M6.85355339,6.14644661 L9.975,9.268 L13.0961941,6.14644661 C13.2914562,5.95118446 13.6080387,5.95118446 13.8033009,6.14644661 C13.998563,6.34170876 13.998563,6.65829124 13.8033009,6.85355339 L10.682,9.975 L13.8033009,13.0961941 C13.998563,13.2914562 13.998563,13.6080387 13.8033009,13.8033009 C13.6080387,13.998563 13.2914562,13.998563 13.0961941,13.8033009 L9.975,10.682 L6.85355339,13.8033009 C6.65829124,13.998563 6.34170876,13.998563 6.14644661,13.8033009 C5.95118446,13.6080387 5.95118446,13.2914562 6.14644661,13.0961941 L9.268,9.975 L6.14644661,6.85355339 C5.95118446,6.65829124 5.95118446,6.34170876 6.14644661,6.14644661 C6.34170876,5.95118446 6.65829124,5.95118446 6.85355339,6.14644661 Z" id="形状结合" fill="#A1B0C8"></path>
                        </g>
                    </g>
                </g>
            </g>
        </g>
    </g>
</svg>