<?xml version="1.0" encoding="UTF-8"?>
<svg width="24px" height="24px" viewBox="0 0 24 24" version="1.1" xmlns="http://www.w3.org/2000/svg" xmlns:xlink="http://www.w3.org/1999/xlink">
    <title>切片</title>
    <defs>
        <filter color-interpolation-filters="auto" id="filter-1">
            <feColorMatrix in="SourceGraphic" type="matrix" values="0 0 0 0 0.631373 0 0 0 0 0.690196 0 0 0 0 0.784314 0 0 0 1.000000 0"></feColorMatrix>
        </filter>
    </defs>
    <g id="页面-1" stroke="none" stroke-width="1" fill="none" fill-rule="evenodd">
        <g id="cutting/ic_identification_defualt" transform="translate(-1544.000000, -228.000000)" filter="url(#filter-1)">
            <g transform="translate(1544.000000, 228.000000)">
                <path d="M11.7759394,2.28425085 L5.32781819,4.30279314 C4.38903687,4.59667251 3.75,5.46633563 3.75,6.45004059 L3.75,14.6431364 C3.75,15.9350572 4.41500882,17.136004 5.51002021,17.8215764 L11.602004,21.635688 C11.8454463,21.788104 12.1545537,21.788104 12.397996,21.635688 L18.4899798,17.8215764 C19.5849912,17.136004 20.25,15.9350572 20.25,14.6431364 L20.25,6.45004059 C20.25,5.46633563 19.6109631,4.59667251 18.6721818,4.30279314 L12.2240606,2.28425085 C12.0781774,2.23858305 11.9218226,2.23858305 11.7759394,2.28425085 Z M5.7759394,5.73429144 L12,3.785625 L18.2240606,5.73429144 C18.5369877,5.83225123 18.75,6.12213894 18.75,6.45004059 L18.75,14.6431364 L18.747932,14.7397278 C18.7163016,15.4777994 18.3236194,16.1559963 17.6939879,16.5502004 L12,20.114625 L6.30601213,16.5502004 C5.64900529,16.138857 5.25,15.4182889 5.25,14.6431364 L5.25,6.45004059 C5.25,6.12213894 5.46301229,5.83225123 5.7759394,5.73429144 Z" id="矩形" fill="#A3A6B2" fill-rule="nonzero"></path>
                <path d="M14.25,13.875 C14.25,14.2892136 13.9142136,14.625 13.5,14.625 L10.5,14.625 C10.0857864,14.625 9.75,14.2892136 9.75,13.875 C9.75,13.4607864 10.0857864,13.125 10.5,13.125 L12.75,13.125 L12.75,7.125 C12.75,6.71078644 13.0857864,6.375 13.5,6.375 C13.9142136,6.375 14.25,6.71078644 14.25,7.125 L14.25,13.875 L14.25,13.875 Z" id="形状结合" fill="#A3A6B2" transform="translate(12.000000, 10.500000) rotate(-315.000000) translate(-12.000000, -10.500000) "></path>
            </g>
        </g>
    </g>
</svg>