<?xml version="1.0" encoding="UTF-8"?>
<svg width="24px" height="24px" viewBox="0 0 24 24" version="1.1" xmlns="http://www.w3.org/2000/svg" xmlns:xlink="http://www.w3.org/1999/xlink">
    <title>切片</title>
    <defs>
        <filter color-interpolation-filters="auto" id="filter-1">
            <feColorMatrix in="SourceGraphic" type="matrix" values="0 0 0 0 0.301961 0 0 0 0 0.388235 0 0 0 0 0.925490 0 0 0 1.000000 0"></feColorMatrix>
        </filter>
    </defs>
    <g id="页面-1" stroke="none" stroke-width="1" fill="none" fill-rule="evenodd">
        <g id="cutting/ic_identification_focus" transform="translate(-1640.000000, -228.000000)" filter="url(#filter-1)">
            <g transform="translate(1640.000000, 228.000000)">
                <path d="M11.7759394,2.28425085 C11.9218226,2.23858305 12.0781774,2.23858305 12.2240606,2.28425085 L12.2240606,2.28425085 L18.6721818,4.30279314 C19.6109631,4.59667251 20.25,5.46633563 20.25,6.45004059 L20.25,6.45004059 L20.25,14.6431364 C20.25,15.9350572 19.5849912,17.136004 18.4899798,17.8215764 L18.4899798,17.8215764 L12.397996,21.635688 C12.1545537,21.788104 11.8454463,21.788104 11.602004,21.635688 L11.602004,21.635688 L5.51002021,17.8215764 C4.41500882,17.136004 3.75,15.9350572 3.75,14.6431364 L3.75,14.6431364 L3.75,6.45004059 C3.75,5.46633563 4.38903687,4.59667251 5.32781819,4.30279314 L5.32781819,4.30279314 Z M15.9774756,8.6438447 C15.6845824,8.35095148 15.2097087,8.35095148 14.9168155,8.6438447 L14.9168155,8.6438447 L10.6734677,12.8857783 L9.08318453,11.2954951 C8.79029131,11.0026019 8.31541757,11.0026019 8.02252436,11.2954951 C7.72963114,11.5883883 7.72963114,12.0632621 8.02252436,12.3561553 L8.02252436,12.3561553 L10.1438447,14.4774756 C10.4367379,14.7703689 10.9116117,14.7703689 11.2045049,14.4774756 L11.2045049,14.4774756 L15.9774756,9.70450487 C16.2703689,9.41161165 16.2703689,8.93673792 15.9774756,8.6438447 Z" id="形状结合" fill="#A3A6B2" fill-rule="nonzero"></path>
            </g>
        </g>
    </g>
</svg>