<?xml version="1.0" encoding="UTF-8"?>
<svg width="24px" height="24px" viewBox="0 0 24 24" version="1.1" xmlns="http://www.w3.org/2000/svg" xmlns:xlink="http://www.w3.org/1999/xlink">
    <title>切片</title>
    <defs>
        <filter color-interpolation-filters="auto" id="filter-1">
            <feColorMatrix in="SourceGraphic" type="matrix" values="0 0 0 0 0.631373 0 0 0 0 0.690196 0 0 0 0 0.784314 0 0 0 1.000000 0"></feColorMatrix>
        </filter>
    </defs>
    <g id="页面-1" stroke="none" stroke-width="1" fill="none" fill-rule="evenodd">
        <g id="cutting/ic_password_default" transform="translate(-1544.000000, -172.000000)" filter="url(#filter-1)">
            <g transform="translate(1544.000000, 172.000000)">
                <path d="M12,1.5 C14.8994949,1.5 17.25,3.85050506 17.25,6.75 C17.25,7.16421356 16.9142136,7.5 16.5,7.5 C16.0857864,7.5 15.75,7.16421356 15.75,6.75 C15.75,4.67893219 14.0710678,3 12,3 C9.96403503,3 8.30702561,4.62250155 8.25144067,6.64503568 L8.25,6.75 L8.25,8.25 L18.375,8.25 C19.565864,8.25 20.5406449,9.17516159 20.6198092,10.3459512 L20.625,10.5 L20.625,19.5 C20.625,20.7426407 19.6176407,21.75 18.375,21.75 L18.375,21.75 L5.625,21.75 C4.38235931,21.75 3.375,20.7426407 3.375,19.5 L3.375,19.5 L3.375,10.5 C3.375,9.25735931 4.38235931,8.25 5.625,8.25 L5.625,8.25 L6.75,8.25 L6.75,6.75 C6.75,3.85050506 9.10050506,1.5 12,1.5 Z M18.375,9.75 L5.625,9.75 C5.21078644,9.75 4.875,10.0857864 4.875,10.5 L4.875,10.5 L4.875,19.5 C4.875,19.9142136 5.21078644,20.25 5.625,20.25 L5.625,20.25 L18.375,20.25 C18.7892136,20.25 19.125,19.9142136 19.125,19.5 L19.125,19.5 L19.125,10.5 C19.125,10.0857864 18.7892136,9.75 18.375,9.75 L18.375,9.75 Z" id="形状结合" fill="#A3A6B2" fill-rule="nonzero"></path>
                <rect id="矩形" fill="#A3A6B2" x="11.25" y="12.75" width="1.5" height="4.5" rx="0.75"></rect>
            </g>
        </g>
    </g>
</svg>