<?xml version="1.0" encoding="UTF-8"?>
<svg width="24px" height="24px" viewBox="0 0 24 24" version="1.1" xmlns="http://www.w3.org/2000/svg" xmlns:xlink="http://www.w3.org/1999/xlink">
    <title>切片</title>
    <defs>
        <filter color-interpolation-filters="auto" id="filter-1">
            <feColorMatrix in="SourceGraphic" type="matrix" values="0 0 0 0 0.301961 0 0 0 0 0.388235 0 0 0 0 0.925490 0 0 0 1.000000 0"></feColorMatrix>
        </filter>
    </defs>
    <g id="页面-1" stroke="none" stroke-width="1" fill="none" fill-rule="evenodd">
        <g id="cutting/ic_password_focus" transform="translate(-1640.000000, -172.000000)" filter="url(#filter-1)">
            <g transform="translate(1640.000000, 172.000000)">
                <g id="编组" opacity="0">
                    <g id="网格">
                        <path d="M24,0 L24,24 L0,24 L0,0 L24,0 Z M23.95,0.05 L0.05,0.05 L0.05,23.95 L23.95,23.95 L23.95,0.05 Z" id="矩形" fill="#BFBFBF" fill-rule="nonzero"></path>
                        <rect id="长方形-水平" fill="#3572D4" opacity="0.15" x="1.875" y="4.125" width="20.25" height="15.75"></rect>
                        <polygon id="长方形-垂直" fill="#3572D4" opacity="0.15" transform="translate(12.000000, 12.000000) rotate(-270.000000) translate(-12.000000, -12.000000) " points="1.875 4.125 22.125 4.125 22.125 19.875 1.875 19.875"></polygon>
                        <circle id="圆形" fill="#3572D4" opacity="0.15" cx="12" cy="12" r="10.125"></circle>
                        <rect id="倾斜" fill="#3572D4" opacity="0.15" x="6.375" y="0" width="11.25" height="24"></rect>
                        <rect id="正方形" fill="#3572D4" opacity="0.15" x="3" y="3" width="18" height="18"></rect>
                    </g>
                </g>
                <path d="M12,1.125 C15.4442758,1.125 18.25059,3.85643859 18.3709759,7.27134921 L18.375,7.5 L18.375,8.25 L16.125,8.25 L16.125,7.5 C16.125,5.3259267 14.4430999,3.54468222 12.3094668,3.38643367 L12.1081528,3.37639028 L12,3.375 C9.790861,3.375 7.98732491,5.11159249 7.88004829,7.2941209 L7.875,7.5 L7.875,9.75 L19.125,9.75 C19.9534271,9.75 20.625,10.4215729 20.625,11.25 L20.625,19.5 C20.625,20.7426407 19.6176407,21.75 18.375,21.75 L5.625,21.75 C4.38235931,21.75 3.375,20.7426407 3.375,19.5 L3.375,11.25 C3.375,10.4215729 4.04657288,9.75 4.875,9.75 L5.625,9.75 L5.625,7.5 C5.625,3.97918472 8.47918472,1.125 12,1.125 Z M12,13.5 C11.3786797,13.5 10.875,14.0036797 10.875,14.625 C10.875,14.9102289 10.9811476,15.1706657 11.1560951,15.3689626 L11.2491293,15.4627598 L11.25,17.25 C11.25,17.6642136 11.5857864,18 12,18 C12.3796958,18 12.693491,17.7178461 12.7431534,17.3517706 L12.75,17.25 L12.7499066,15.4636235 C12.9801168,15.2576257 13.125,14.9582325 13.125,14.625 C13.125,14.0608164 12.7096979,13.5936319 12.1681256,13.5124782 L12.050247,13.5011021 L12,13.5 Z" id="形状结合" fill="#A3A6B2"></path>
            </g>
        </g>
    </g>
</svg>