<?xml version="1.0" encoding="UTF-8"?>
<svg width="24px" height="24px" viewBox="0 0 24 24" version="1.1" xmlns="http://www.w3.org/2000/svg" xmlns:xlink="http://www.w3.org/1999/xlink">
    <title>切片</title>
    <defs>
        <filter color-interpolation-filters="auto" id="filter-1">
            <feColorMatrix in="SourceGraphic" type="matrix" values="0 0 0 0 0.301961 0 0 0 0 0.388235 0 0 0 0 0.925490 0 0 0 1.000000 0"></feColorMatrix>
        </filter>
    </defs>
    <g id="页面-1" stroke="none" stroke-width="1" fill="none" fill-rule="evenodd">
        <g id="cutting/ic_username_focus" transform="translate(-1640.000000, -116.000000)" filter="url(#filter-1)">
            <g transform="translate(1640.000000, 116.000000)">
                <path d="M17.25,13.5 C19.3210678,13.5 21,15.1789322 21,17.25 L21,17.25 L21,21 C21,21.4142136 20.6642136,21.75 20.25,21.75 L20.25,21.75 L3.75,21.75 C3.33578644,21.75 3,21.4142136 3,21 L3,21 L3,17.25 C3,15.1789322 4.67893219,13.5 6.75,13.5 L6.75,13.5 Z M12,1.875 C14.8994949,1.875 17.25,4.22550506 17.25,7.125 C17.25,10.0244949 14.8994949,12.375 12,12.375 C9.10050506,12.375 6.75,10.0244949 6.75,7.125 C6.75,4.22550506 9.10050506,1.875 12,1.875 Z" id="形状结合" fill="#A3A6B2" fill-rule="nonzero"></path>
            </g>
        </g>
    </g>
</svg>