<?xml version="1.0" encoding="UTF-8"?>
<svg width="24px" height="24px" viewBox="0 0 24 24" version="1.1" xmlns="http://www.w3.org/2000/svg" xmlns:xlink="http://www.w3.org/1999/xlink">
    <title>切片</title>
    <defs>
        <filter color-interpolation-filters="auto" id="filter-1">
            <feColorMatrix in="SourceGraphic" type="matrix" values="0 0 0 0 0.301961 0 0 0 0 0.388235 0 0 0 0 0.925490 0 0 0 1.000000 0"></feColorMatrix>
        </filter>
    </defs>
    <g id="页面-1" stroke="none" stroke-width="1" fill="none" fill-rule="evenodd">
        <g id="cutting/ic_username_hovor" transform="translate(-1592.000000, -116.000000)" filter="url(#filter-1)">
            <g transform="translate(1592.000000, 116.000000)">
                <path d="M17.25,13.5 C19.3210678,13.5 21,15.1789322 21,17.25 L21,17.25 L21,21 C21,21.4142136 20.6642136,21.75 20.25,21.75 L20.25,21.75 L3.75,21.75 C3.33578644,21.75 3,21.4142136 3,21 L3,21 L3,17.25 C3,15.1789322 4.67893219,13.5 6.75,13.5 L6.75,13.5 Z M17.25,15 L6.75,15 C5.50735931,15 4.5,16.0073593 4.5,17.25 L4.5,17.25 L4.5,20.25 L19.5,20.25 L19.5,17.25 C19.5,16.0356011 18.5379094,15.0459106 17.3343518,15.0015519 L17.3343518,15.0015519 L17.25,15 Z M12,1.875 C14.8994949,1.875 17.25,4.22550506 17.25,7.125 C17.25,10.0244949 14.8994949,12.375 12,12.375 C9.10050506,12.375 6.75,10.0244949 6.75,7.125 C6.75,4.22550506 9.10050506,1.875 12,1.875 Z M12,3.375 C9.92893219,3.375 8.25,5.05393219 8.25,7.125 C8.25,9.19606781 9.92893219,10.875 12,10.875 C14.0710678,10.875 15.75,9.19606781 15.75,7.125 C15.75,5.05393219 14.0710678,3.375 12,3.375 Z" id="形状结合" fill="#979797" fill-rule="nonzero"></path>
            </g>
        </g>
    </g>
</svg>